<?xml version="1.0" encoding="UTF-8"?>
<svg id="Calque_1" data-name="Calque 1" xmlns="http://www.w3.org/2000/svg" viewBox="0 0 696.74 728.99">
  <defs>
    <style>
      .cls-1 {
        fill: #fc6f04;
      }

      .cls-2 {
        fill: #fcbb41;
      }

      .cls-3 {
        fill: #47af2b;
      }

      .cls-4 {
        fill: #1abebd;
      }

      .cls-5 {
        fill: #fa7804;
      }

      .cls-6 {
        fill: #11858e;
      }

      .cls-7 {
        fill: #f89705;
      }

      .cls-8 {
        fill: #fcad0b;
      }

      .cls-9 {
        fill: #93d01d;
      }

      .cls-10 {
        fill: #98e3e5;
      }

      .cls-11 {
        fill: #fdc107;
      }

      .cls-12 {
        fill: #299b32;
      }

      .cls-13 {
        fill: #38a82e;
      }

      .cls-14 {
        fill: #fc8d05;
      }

      .cls-15 {
        fill: #c94003;
      }

      .cls-16 {
        fill: #17adb3;
      }

      .cls-17 {
        fill: #fce696;
      }

      .cls-18 {
        fill: #f66302;
      }

      .cls-19 {
        fill: #28cfc4;
      }

      .cls-20 {
        fill: #45bd33;
      }

      .cls-21 {
        fill: #7ccb22;
      }

      .cls-22 {
        fill: #d1f6e8;
      }

      .cls-23 {
        fill: #b7efeb;
      }

      .cls-24 {
        fill: #56b628;
      }

      .cls-25 {
        fill: #dd6003;
      }

      .cls-26 {
        fill: #a6e8e5;
      }

      .cls-27 {
        fill: #c5f3ea;
      }

      .cls-28 {
        fill: #66c72b;
      }

      .cls-29 {
        fill: #7cc72c;
      }

      .cls-30 {
        fill: #278226;
      }
    </style>
  </defs>
  <path class="cls-18" d="M524.74,642.99c-7.41,19.23-15.2,40.24-23.53,58.97-5.98,13.43-12.27,23.35-27.47,27.03h-11c-8.41-2.93-14.13-6.37-9.9-16.4,3.88-9.19,14.3-.61,21.89-6.11,2.49-1.8,5.88-9.86,5.7-12.85-6.44-14.12-12.45-28.44-18.68-42.64,4.67-3.03,7.63,4.88,10.71,5.79,3.8,1.13,10.12-.37,14.29.21,1.31,3.18,4.36,7.36,5.5,11,.79-.36,4.85-11.09,5.5-13,2.47-.67,2.09,2.36,3.63,2.88,9.18,3.12,12.62-17.07,23.37-14.88Z"/>
  <path class="cls-18" d="M628.74,669.99c2.59-4.78,9.89-.48,13.45-.96,2.21-.3,2.9-2.76,5.06-3.09,2.38-.33,2.54,6.26,5.48,1.05,1.56,3.95,8.62,9.91,12.98,10.61,1.75.28,9.47-.42,11.3-.82,8.53-1.87,12.98-9.02,19.72,4.22v5c-18.77,21.67-60.89,12.47-68-16Z"/>
  <path class="cls-3" d="M116.74,599.99c1.18,11.27,1.98,22.72,3,34-1.86,2.09-.64,5.25-1.45,8.05-2.2,7.59-12.15,12.36-19.54,8.95-.05,3.32.04,6.67,0,10l-3.01-33c-1.55.25-1.88,1.87-2.47,3.02-3.59,7.01-7.34,16.54-10.52,23.98-6.75.82-13.61,3.9-20.54,4.02-5.52.1-11.34-1.71-16.94-2.07-1.66-.1-5.25-.98-4.52,2.05-3.2-7-5.98-13.97-9-21l17.43-8.07c.49,1.24,1.97,2.18,2.57,3.07,4.1,6.06,5.94,13.99,8.9,20.6.53,1.19-.47,1.8,2.09,1.4,4.58-16.44,12.89-31.61,20.01-47,2.11,1.91,4.5,2.58,7.28,1.8,6.28-3.16,15.09-8.59,21.71-10.37,1.93-.52,3.31-.66,5.01.57Z"/>
  <path class="cls-5" d="M615.74,643.99v1c-11.44,1.62-10.34,20.87-22.99,16,.73,8.91-1.01,19.29,0,28-5.37-13.32,8.47-52.97-13.5-53.08-5.55-.03-13.05,4.29-14.29,9.79-1.86,8.24-.09,28.07-.19,37.8-.02,1.69.64,4.45-1.02,5.49,1.05-9.01.68-27.18,0-36.52-.11-1.49.78-2.89-1.49-2.48-5.42,5.3-7.81,14.86-17.38,12.85-1.07-.67-.04-4.93-3.13-3.85,1.06,9.46-1.44,21.95,0,30.99-1.66-1.04-1-3.8-1.02-5.49-.21-20.02.23-40.05-.04-60.07,3.27-11.43,21.39-10.12,22.06,2.55,8.49-8.56,16.01-12.27,28.38-10.89,17.28,1.92,22.53,12.16,24.61,27.9Z"/>
  <path class="cls-1" d="M439.74,601.99c-.65,4.75-5.67,9.78-10.6,9.97-3.44.13-10.8-5-15.13-5.73-3.86-.65-11.52-.63-15.33.19-7.12,1.54-10.34,8.89-5.94,15.07,4.93,6.92,22.75,9.05,31.26,12.74,13.11,5.67,19.64,13.14,20.74,27.76-1.22-5.39-11.18-3.9-15.05-2.55-2.63.92-3.76,4.26-6.92,3.52-.39-5.45-3.67-4.31-7.03-5.98-22.97-11.4-62.5-13.4-47-52l3.03,13.97c10.26,2.04,7.62-7.5,11-10.45.74-.64,7.97-5.28,9.65-6.35,7.43-4.77,15.24-7.43,24.37-4.71,5.13,1.52,8.79,9.19,11.51,9.58,5.56.8,6.39-5.03,11.45-5.03Z"/>
  <path class="cls-18" d="M415.74,656.99c3.37,1.67,6.64.53,7.03,5.98,3.16.74,4.29-2.6,6.92-3.52,3.86-1.36,13.82-2.84,15.05,2.55.11,1.53.11,3.47,0,5l-.98.5.98.5c-3.97,32.42-53.43,37.45-74.93,21.43-8.95-6.67-6.22-21.16,5.4-20.48,6.04.36,11.98,6.1,18.09,6.98,13.88,1.99,33.19-1.11,22.44-18.94Z"/>
  <path class="cls-24" d="M3.74,633.99c.69-8.89,1.12-17.58,1.99-26.51.74-7.59-2.35-14.66,5.08-19.92,6.43-4.55,15.18-3.28,20.79,2.06l20.14,43.36c-.6-.88-2.08-1.83-2.57-3.07l-17.43,8.07c-1.07-2.49-4.08-5.46-4.01-8.99l-1.99,4.99c-.65-10.27-2.48-9.23-9.92-3.42-2.89,2.26-6.65,7.99-10.57,7.43l-1.51-4.01Z"/>
  <path class="cls-12" d="M263.74,662.99c.66.03,1.34-.05,2,0l.14,5.87c7.38,2.85,14.29.81,20.86-2.86.04.45.53.9,1,1,0,.35-.92,1.42-.94,2.54-.13,9.6,6.22,27.04-9.55,27.55-9.45.31-11.04-9.06-12.01-9.07-14.46,16.95-47.19,10.19-48.43-13.71-.14-2.76.81-3.33.93-4.31l1.01,7c5.86-.98,12.26-.04,18.54,0,1.37,0,3.09-1.02,3.46-1,.93.06,4.6,3.5,7.57,3.94,10.88,1.61,17.94-6.19,15.43-16.94Z"/>
  <path class="cls-24" d="M285.74,639.99c-6.29,5.47-14.81,1.24-22,4-1.3-9.14-12.15-8.97-19.26-7.76-6.02,1.02-15.49,9.89-21.09,1.51-8.59-12.85,11.16-20.6,20.97-21.62,16.25-1.7,35.08,1.36,41.15,18.63.6,1.71-.1,3.85.22,5.25Z"/>
  <path class="cls-12" d="M162.74,672.99c7.24,6.04,17.18,5.93,25.8,3.3,5.48-1.67,8.63-6.24,14.57-3.17,8.45,4.37,4.72,14.57-2.02,18.72-21.29,13.12-53.99,5.89-63.36-18.86-.54-2.94,1.46-2.13,3.36-1.89,7.09.87,13.77,5.34,21.64,1.89Z"/>
  <path class="cls-24" d="M325.74,630.99l-2.49-2.99c-6.62,4.42-11.63,13.65-20.51,12.99-.02-17.98.01-36.02,0-54,.99-4.21,1.39-7.07,6.56-7.94,8.17-1.37,15.65.16,16.49,9.39,1.17,12.83-.05,29.27-.05,42.55Z"/>
  <path class="cls-13" d="M208.74,644.99c.69,5.38,2.38,10.58-2.48,15.02-.56.51-4.73,2.98-5.02,2.98h-42.5c.65,4.91.22,6.84,4,10-7.87,3.45-14.54-1.02-21.64-1.89-1.91-.23-3.91-1.05-3.36,1.89-2.98-7.88-3.44-11.39-3-20,5.23.67,19.58,2.84,23.09-1.44,1.15-1.39.6-2.44.91-3.56,8.81-.39,17.78.51,26.58.04,1.3-.07,2.26-1.03,2.42-1.04,7.15-.47,13.81-.17,21-2Z"/>
  <path class="cls-5" d="M631.74,636.99c8.54-18.05,27.46-23.67,46.44-20.94,2.39.34,13.19,4.71,14.6,6.4,3.72,4.47,2.36,13.47-3.29,15.77-7.31,2.98-17.77-6.63-29.28-.27-.55.31-5.29,3.74-5.47,4.04.6-2.85-1.65-2.18-3.5-2.04-5.62.43-11.23,1.86-16.89.08-1.43-.45.58-3.89-2.62-3.04Z"/>
  <path class="cls-5" d="M439.74,601.99c-5.05,0-5.89,5.83-11.45,5.03-2.71-.39-6.37-8.05-11.51-9.58-9.14-2.71-16.94-.06-24.37,4.71-1.68,1.08-8.91,5.71-9.65,6.35-3.38,2.95-.74,12.49-11,10.45l-3.03-13.97c7.01-17.45,23.46-22.18,41.49-20.99,9.93.66,31.33,4.69,29.51,17.99Z"/>
  <path class="cls-24" d="M203.74,630.99c.91,3.21-6.03,2.15-7.55,2.04-6.15-.42-14.19-4.98-18.45.96-1.38-.29-6.52-.24-8,0l-.51-.99h-1.48s0,1.99,0,1.99c-2.29.91-7.07,5-8,7-7.06,1.4-17.24,5.15-22-2,10.86-28.25,48.17-33.76,66-9Z"/>
  <path class="cls-18" d="M615.74,644.99c-1.2,13.9,1.62,30.44,0,44-1.21,10.11-21.74,10.95-23,0-1-8.7.73-19.09,0-28,12.65,4.87,11.55-14.39,22.99-16Z"/>
  <path class="cls-1" d="M486.74,656.99c-4.18-.58-10.49.92-14.29-.21-3.08-.91-6.04-8.82-10.71-5.79-2.27-5.18-11.24-20.67-10.79-25.26.96-10.03,18.03-12.55,23-3.44s8.64,24.59,12.79,34.71Z"/>
  <path class="cls-3" d="M287.74,666.99c-.47-.1-.96-.55-1-1-.43-4.46.32-9.46-.01-13.99-1.9-.25-.28,1.96-1.61,3.1-5.19,4.42-23.14-.3-31.41,3.4-2.23.99-2.32.68-1.96,3.5-3.2.32-5.59,3.25-9,3-5.59-5.28-17.59,3.1-23-3,7.31-14.72,29.88-15.13,44-12.99-.14-1.61.22-3.45,0-5.01,7.19-2.76,15.71,1.47,22-4,.03.14,1.37.5,1.47,1.04,1.42,7.36.53,18.1.53,25.96Z"/>
  <path class="cls-18" d="M541.74,689.99c-1.44-9.04,1.06-21.54,0-30.99,3.09-1.07,2.07,3.18,3.13,3.85,9.57,2.01,11.96-7.55,17.38-12.85,2.26-.42,1.38.99,1.49,2.48.68,9.34,1.05,27.51,0,36.52-1.24,10.68-20.53,10.25-22,1Z"/>
  <path class="cls-1" d="M524.74,642.99c-10.75-2.19-14.19,18-23.37,14.88-1.54-.52-1.16-3.55-3.63-2.88.18-.52-.18-1.47,0-2l1-1c2.43-6.96,7.25-27.62,11.46-32.04,4.76-5.01,18.37-3.8,20.34,2.75,1.54,5.12-3.8,15.12-5.8,20.29Z"/>
  <path class="cls-12" d="M99.74,674.99c.04-3.66-.03-7.34,0-11,7.23,3.15,10.3-.47,15.97-2.54,4.06-1.48,4.6,1.61,6.03-4.46.66,8.52,2.78,22.82,2.04,30.55-.78,8.15-8.58,10.65-15.86,8.77-10.07-2.61-8.27-13.15-8.18-21.31Z"/>
  <path class="cls-1" d="M631.74,636.99c3.2-.85,1.19,2.6,2.62,3.04,5.66,1.78,11.27.35,16.89-.08,1.85-.14,4.1-.81,3.5,2.04-.25.43-2.91,8.6-3.02,9.48-.43,3.37-.19,12.45,1.02,15.52-2.94,5.21-3.11-1.38-5.48-1.05-2.16.33-2.85,2.79-5.06,3.09-3.56.48-10.86-3.82-13.45.96-2.62-10.5-1.62-23.24,3-33Z"/>
  <path class="cls-3" d="M302.74,640.99c8.88.66,13.89-8.57,20.51-12.99l2.49,2.99v33c-.14-1.23-1.98-3.74-1-6-7.65,1.84-13.9,4.65-22,2-.05-6.32,0-12.68,0-19Z"/>
  <path class="cls-24" d="M116.74,599.99c-1.7-1.23-3.08-1.09-5.01-.57-6.62,1.79-15.43,7.21-21.71,10.37-2.78.77-5.17.11-7.28-1.8,5.32-11.51,5.74-25.7,23.26-22.76,9.26,1.56,9.93,7.08,10.74,14.76Z"/>
  <path class="cls-13" d="M82.74,654.99c-2.07,4.85-3.71,10.02-6,15-8.71-.73-19.92,4.84-28.31,2.98-.84-.19-.68-2.68-2.69-1.98-1.87-3.92-3.21-8.09-5-12-.73-3.02,2.87-2.15,4.52-2.05,5.6.35,11.41,2.16,16.94,2.07,6.93-.12,13.79-3.2,20.54-4.02Z"/>
  <path class="cls-12" d="M.74,673.99c7.37,7.29,14.46-2.88,20.03-5.47,1.89-.88,3.4-1.4,2.97,1.47-.77,10.97,4.04,25.82-11.64,26.93-15.57,1.1-11.85-13.64-11.36-22.93Z"/>
  <path class="cls-3" d="M25.74,633.99c.06.99-.03,2,0,3-2.1,3.28-.13,6.48-2.13,10.37-2.86,5.56-13.58,11.17-19.87,10.63l-1-10c.32-4.67.66-9.58,1-14l1.51,4.01c3.93.56,7.68-5.17,10.57-7.43,7.44-5.81,9.27-6.85,9.92,3.42Z"/>
  <path class="cls-13" d="M23.74,669.99c.44-2.87-1.08-2.34-2.97-1.47-5.58,2.59-12.67,12.76-20.03,5.47.46-8.74,1.42-17.59,2-26l1,10c6.3.54,17.01-5.07,19.87-10.63,2-3.89.03-7.1,2.13-10.37.35,11.24-1.24,22.17-2,33Z"/>
  <path class="cls-12" d="M325.74,673.99c.06,4.28.65,11.47-.21,15.29-2.11,9.36-21.32,10.7-22.79-.29-.47-3.53.09-8.23,0-12,8.2,3.5,15.02-2.95,23-3Z"/>
  <path class="cls-13" d="M302.74,659.99c8.1,2.65,14.34-.16,22-2-.98,2.26.86,4.78,1,6,.36,3.02-.04,6.82,0,10-7.98.05-14.8,6.5-23,3-.13-5.65.05-11.35,0-17Z"/>
  <path class="cls-3" d="M177.74,633.99c4.27-5.94,12.31-1.38,18.45-.96,1.52.1,8.46,1.17,7.55-2.04,4.4,6.11,4.09,6.86,5,14-7.19,1.83-13.85,1.53-21,2-.62-4.62-5.2-12-10-13Z"/>
  <path class="cls-13" d="M121.74,656.99c-1.43,6.08-1.97,2.98-6.03,4.46-5.67,2.07-8.74,5.69-15.97,2.54-.04,3.66.03,7.34,0,11-1.8-3.73-1.06-9.63-1-14,.05-3.32-.04-6.67,0-10,7.39,3.4,17.34-1.37,19.54-8.95.81-2.79-.41-5.96,1.45-8.05.69,7.64,1.41,15.36,2,23Z"/>
  <path class="cls-12" d="M76.74,669.99c-3.87,8.41-3.81,15.72-15.61,15.89-10.66.16-11.78-7.31-15.39-14.89,2.01-.7,1.84,1.8,2.69,1.98,8.39,1.85,19.6-3.71,28.31-2.98Z"/>
  <path class="cls-13" d="M219.74,661.99c5.41,6.1,17.41-2.28,23,3l-2,11c-.37-.02-2.08,1.01-3.46,1-6.28-.04-12.68-.98-18.54,0l-1.01-7c.48-3.99.1-4.18,2-8Z"/>
  <path class="cls-3" d="M159.74,641.99c-.55,1.18-.57,4.43-1,6-.31,1.13.24,2.17-.91,3.56-3.52,4.28-17.87,2.1-23.09,1.44.31-6.07.89-7.52,3-13,4.76,7.15,14.94,3.4,22,2Z"/>
  <path class="cls-8" d="M314.74,14c-2.21,3.08-6.67,2.05-9.44,5.05-1.74,1.89-2.69,5.39-2.56,7.95-2.61.45-1.55-.37-2.09-1.43-3.13-6.16-3.47-9.02-11.91-9.59-.73-3.08,2.59-1.68,4.72-2.76,4.95-2.5,6.26-4.65,7.29-10.22l4.98,8.5,9,2.51Z"/>
  <path class="cls-26" d="M302.74,640.99c0,6.32-.05,12.68,0,19,.05,5.65-.13,11.35,0,17,.09,3.77-.47,8.47,0,12-1.66-1.04-1-3.79-1.02-5.49-.35-28.6-2.46-65.39-.06-93.13.17-1.95.87-2.5,1.07-3.38.01,17.98-.02,36.02,0,54Z"/>
  <path class="cls-2" d="M318.73,88.01c-1.96,7.11-7.67,9.26-11.96,2.41,3.93-6.01,6.29-5.91,11.96-2.41Z"/>
  <path class="cls-11" d="M350.73,45.98c1.72,6.31.56,10.79-6.91,9.92-2.59-1.55,2.89-11.43,6.91-9.92Z"/>
  <path class="cls-2" d="M208.99,149.76c-4.75-5.02,4.64-9.9,7.29-4.78,2.1,4.05-5.17,7.02-7.29,4.78Z"/>
  <path class="cls-22" d="M615.74,688.99c1.62-13.56-1.2-30.1,0-44v-1c1.67,12.72,1.18,26.47,1.02,39.51-.02,1.69.64,4.45-1.02,5.49Z"/>
  <path class="cls-2" d="M465.27,87c4.14-1.21,6.39,6.73,2.86,7.9-5.72,1.9-5.4-7.16-2.86-7.9Z"/>
  <path class="cls-8" d="M498.74,169.99c-.14-2.29-.06-4.71,0-7,1.65,1.26,1.65,5.74,0,7Z"/>
  <path class="cls-1" d="M444.74,667.99l-.98-.5.98-.5c-.02.33.04.67,0,1Z"/>
  <path class="cls-18" d="M497.74,652.99c.24-.72.98-.93,1-1l-1,1Z"/>
  <g>
    <path class="cls-27" d="M428.74,229.99c2.61,9.34,7.03,16.39,7.08,26.48.04,8.66-2.42,18.71-6.08,26.52-2.32,4.94-5.26,9.18-9,13-4.23.35-9.16-.62-13.27.23-2.51.52-4.75,2.83-7.2,3.8-7.96,3.13-23.21,1.37-31.79-.26-3.78-.72-7.13-3.53-11.26-3.8-12.34-.83-47.96,1.93-59.51,5.5-3.92,1.21-7.08,4.49-11.51,4.59-5.6.13-15.68-5.86-22.45-5.06-3.78-5.39-7.28-11.58-9-18-.4-1.5-2-8.65-2-9.5v-17c0-2.09,2.64-6.38,0-9.5,1.77-3.9,2.77-6.21,5-10,3.01,3.14,1.14,6.32,6.45,7.05,10.93,1.49,29.11-.85,41.09-1.09,13.28-.27,28.64-1.87,42-1,12.59.82,41.02,7.29,51.44.49,1.57-1.02,1.6-3.04,3.27-3.78,3.52-1.57,9.25-1.06,13.04-2.89,2.88-1.39,9.64-6.64,10.72-9.78,1.24,1.58,1.78,2.25,3,4Z"/>
    <path class="cls-22" d="M425.74,225.99c-1.08,3.14-7.83,8.39-10.72,9.78-3.79,1.83-9.52,1.32-13.04,2.89-1.67.74-1.7,2.76-3.27,3.78-10.41,6.8-38.85.33-51.44-.49-13.35-.87-28.71.73-42,1-11.97.24-30.15,2.57-41.09,1.09-5.32-.72-3.44-3.9-6.45-7.05,21.7-36.88,64.9-56.36,107.21-48.71,3.63.66,16.29,3.56,18.76,5.24,2.31,1.58,4.01,8.77,7.71,12.29,2.16,2.06,7.02,5.01,9.8,6.2,5.01,2.15,14.4,2.7,17.48,4.52,2.57,1.51,5.3,7.23,7.05,9.45Z"/>
    <path class="cls-10" d="M330.74,329.99c-.32,2.11,2.62,3.38,4.1,4.4,11.31,7.85,33.55,11.4,47.45,10.65,2.97-.16,6.69-.81,9.82-1.18,15.13-1.79,30.78-5.76,45.64-8.86-19.14,38.32-56.17,59.87-99.49,56.99-1.82-.12-13.81-1.67-14.37-2.13-.28-.23-1.39-4.83-2.71-6.79-9.23-13.65-21.94-12.1-35.81-14.19-10.71-1.61-14.45-7.71-20.62-15.88,4.47-2.84,9.82-1.12,14.05-2.45,3.41-1.07,7.63-7.79,12.7-9.3,4.51-1.34,22.96-1.07,24.08-5.95.38-1.67-1.39-3.64.16-5.3,4.87.26,10.1.08,15,0Z"/>
    <path class="cls-26" d="M447.74,270.99c4.03,22.22-.08,44.13-10,64-14.87,3.1-30.52,7.07-45.64,8.86-3.12.37-6.84,1.02-9.82,1.18-13.89.75-36.14-2.8-47.45-10.65-1.47-1.02-4.42-2.29-4.1-4.4,30.47-.47,68.21-11.76,90-34,3.74-3.82,6.68-8.06,9-13,6.85.33,10.79-5.41,14.49-10.04,1.06-1.32.18-2.7,3.51-1.96Z"/>
    <path class="cls-26" d="M254.74,282.99c1.72,6.42,5.22,12.61,9,18,12.32,17.58,25.15,20.83,44.24,27.07.83.27.78,1.93,1.34,1.94,2.34.03,3.67-.16,6.42-.01-1.56,1.66.22,3.64-.16,5.3-1.12,4.88-19.57,4.61-24.08,5.95-5.07,1.51-9.29,8.23-12.7,9.3-4.23,1.32-9.58-.39-14.05,2.45-16.68-22.07-24.14-47.35-21-75l11,5Z"/>
    <path class="cls-23" d="M447.74,270.99c-3.33-.74-2.46.64-3.51,1.96-3.7,4.63-7.64,10.37-14.49,10.04,3.66-7.81,6.12-17.85,6.08-26.52-.05-10.1-4.46-17.14-7.08-26.48,8.62,12.38,16.23,25.77,19,41Z"/>
    <path class="cls-23" d="M254.74,282.99l-11-5c1.47-12.92,3.78-19.51,9-31,2.64,3.12,0,7.41,0,9.5v17c0,.85,1.6,8,2,9.5Z"/>
    <path class="cls-23" d="M420.74,295.99c-21.79,22.24-59.53,33.53-90,34-4.9.08-10.13.26-15,0-2.75-.15-4.08.05-6.42.01-.56,0-.51-1.67-1.34-1.94-19.1-6.24-31.92-9.49-44.24-27.07,6.78-.8,16.86,5.18,22.45,5.06,4.43-.1,7.6-3.38,11.51-4.59,11.55-3.58,47.16-6.33,59.51-5.5,4.13.28,7.47,3.09,11.26,3.8,8.58,1.62,23.83,3.38,31.79.26,2.45-.96,4.69-3.28,7.2-3.8,4.11-.85,9.04.12,13.27-.23Z"/>
  </g>
  <g>
    <g>
      <g>
        <path class="cls-9" d="M217.74,250.99c2.65,3.09,2.48,3.78,2.04,8.55-.89,9.56-3.49,17.53-3.03,27.94.42,9.44,3.41,18.18,4.91,27.09.34,2.03-.34,7.68.08,8.42-.92,6.29-4.2-3.77-4.57-4.98-.43-1.44-.15-3.13-.43-4.02-1-3.16-2.5-10.77-6.46-10.95-.62-.03-11.43,2.71-11.95,3.04-2.28,1.46-1.86,4.2-3.59,5.91-2.59-14.85-3.05-22.85-2-38,.39-5.66.85-21.01,3.54-24.96,3.02-4.41,10.21-.18,14.46-3.04,3.19.88,4.99,2.66,7,5Z"/>
        <path class="cls-29" d="M189.74,268.99l.8.7.21,4.31h1.99c-1.05,15.14-.59,23.15,2,38,1.18,6.73,2.44,13.36,4.01,20,3.99.77.17-4.77.3-7.36.08-1.54,1.53-5.08,2.71-6.12,1.75-1.54,12.48-6.7,14.98-4.52.28.89,0,2.58.43,4.02.36,1.21,3.65,11.28,4.57,4.98.05.09,1.51-.24,2.01.68,1.19,2.16,1.27,5.92,3.99,5.32,3.95,11.26,9.42,19.74,15,30-1.25,1.19-3.92,1.35-5,2-4.1-2.41-7.74-11.52-10.03-13.47-4.4-3.74-11.78.3-16.97-.53.77,3.81.13,8.31,1,12-4.48-3.5-4.63-10.21-7.98-14.57l-4.02,1.57c-9.98-25.76-13.29-49.26-10-77ZM201.99,334.97c0-.68-.55-1.23-1.23-1.23s-1.23.55-1.23,1.23.55,1.23,1.23,1.23,1.23-.55,1.23-1.23ZM203.99,339.97c0-.68-.55-1.23-1.23-1.23s-1.23.55-1.23,1.23.55,1.23,1.23,1.23,1.23-.55,1.23-1.23Z"/>
        <path class="cls-21" d="M217.74,250.99c9.15,4.56,3.35,18.11,2.96,26.46-.84,18.1,1.06,34.52,7.04,51.54-2.71.6-2.8-3.16-3.99-5.32-.51-.92-1.96-.59-2.01-.68-.42-.75.26-6.4-.08-8.42-1.49-8.9-4.49-17.64-4.91-27.09-.47-10.41,2.14-18.38,3.03-27.94.44-4.77.62-5.46-2.04-8.55Z"/>
        <path class="cls-24" d="M211.74,358.99c1.41,5.98,5.94,9.94,9,15-1.4.86-3.19,2.51-4,4-8.63-11.7-11.85-18.7-17-32l4.02-1.57c3.35,4.36,3.5,11.07,7.98,14.57Z"/>
        <path class="cls-3" d="M242.74,358.99c.86,1.58,4.34,3.58,2.55,6.05-2.94,1.87-6.11.37-9.51,1.5-8.18,2.72-10.09,14.05-9.05,21.45-5.35-.32-7.39-6.47-9.99-10,.81-1.49,2.6-3.14,4-4,6.58-4.04,11-9.36,17-13,1.08-.65,3.75-.81,5-2Z"/>
        <path class="cls-21" d="M210.74,245.99c-4.24,2.87-11.44-1.37-14.46,3.04-2.7,3.94-3.15,19.29-3.54,24.96h-1.99s-.21-4.3-.21-4.3l-.8-.7c.92-7.71,2.46-15.54,5.22-22.79,2.23-1.64,12.86-1.02,15.78-.21Z"/>
        <path class="cls-21" d="M216.74,313.99c-2.5-2.18-13.23,2.98-14.98,4.52-1.18,1.04-2.63,4.58-2.71,6.12-.14,2.59,3.68,8.13-.3,7.36-1.57-6.64-2.83-13.27-4.01-20,1.73-1.71,1.32-4.45,3.59-5.91.52-.33,11.33-3.07,11.95-3.04,3.96.18,5.46,7.79,6.46,10.95Z"/>
        <path class="cls-28" d="M237.74,360.99c-6,3.64-10.42,8.96-17,13-3.06-5.06-7.59-9.02-9-15-.87-3.69-.23-8.18-1-12,5.19.83,12.56-3.21,16.97.53,2.29,1.95,5.93,11.05,10.03,13.47Z"/>
        <circle class="cls-21" cx="202.76" cy="339.97" r="1.23"/>
        <circle class="cls-21" cx="200.76" cy="334.97" r="1.23"/>
      </g>
      <g>
        <g>
          <path class="cls-16" d="M470.74,374.99c-39.66,53-106.11,77.58-170.76,57.26-5.08-1.6-15.57-7.07-19.72-7.3-2.11-.12-1.3.05-1.52,1.5-.59,3.95,2.23,15.47-5.28,13.39-3.86-1.07-12.75-15.21-14.89-19.19-3.92-7.3-6.58-15.09-9.83-22.67,7.56-3.28,10.09,8.97,13.68,9.86,1.78.44,5.09-1.46,8.6-.66,2.41.55,4.94,3.36,7.69,4.32,20.39,7.16,42.24,19.93,65.25,17.19,4.24-.5,9.88-1.05,8.78-6.72,4.78-.17,8.25-.36,13-1,3.43-.46,8.85-1.08,12-2,3.79,4.81,9.02,1.59,13.99-.51,4.68-1.98,12.45-5.36,14.01-10.49,2.62-1.03,5.73-2.68,5.99-5.99-.67-.61-11.12,2.84-13.54,3.02-2.76.21-4.23-1.04-4.46-1.03,14.4-6.42,27.23-15.59,39-26-.12.16,1.64,1.1-2.03,2.5.09,1.62-.76,2.75,1.49,2.48,12.28-1.45,25.38-14.64,38.53-7.98Z"/>
          <path class="cls-19" d="M501.74,298.99l-.97-.49c-1.8,15.08-6.54,31.31-12.03,45.49l-4.54-2-.51-1.56,3.04-8.44c-4.13.74-9.35.45-13.27,1.23-4.15.82-4.39,3.77-7.72,4.76,7.81-23.15,11.74-46.72,7.57-71.12-.22-1.3-1.47-2.4-1.58-2.88-.3-1.42.24-3.41-.24-5.23-1.62-6.11-3.7-12.61-8.76-16.77.17-2.22-.42-3.24.95-5.55,3.78-6.38,22.89-13.54,27.95-5.85,6.21,16.83,10.5,34.76,11.15,52.85.2,5.52-.67,10.49-1.05,15.55Z"/>
          <path class="cls-6" d="M491.74,345.99c-29.48,76.27-111.83,117.25-191,94.5-6.58-1.89-12.73-4.93-19.38-6.58-4.98,10.13-3.08,25.31-15.6,10.56-10.01-11.8-26.46-47.35-25.02-62.48,3.4,4.52,5.76,10.77,8,16,3.25,7.58,5.91,15.37,9.83,22.67,2.14,3.98,11.03,18.11,14.89,19.19,7.51,2.09,4.68-9.43,5.28-13.39.22-1.45-.59-1.62,1.52-1.5,4.15.23,14.64,5.7,19.72,7.3,64.65,20.32,131.1-4.26,170.76-57.26,6.24-8.34,14.12-19.37,18-29h3Z"/>
          <path class="cls-4" d="M240.74,381.99c.12-1.26-.27-2.58.93-3.55l64.45,7.52c1.36.38.38,2.19.62,3.03-2.87-.54-10.41,8.37-11.24,10.27-2.27,5.18.77,3.76,3.24,4.73,20.12,7.92,45.64,11.27,67,8l3-1c.9-.18,2.14.2,3,0l1,2.99c-2.67-.96-5.59,1.72-7,2.01-10.39,2.07-33.48,1.79-44,0-4.58-.78-11.37-4.24-16.49-4.02-3.71,8.23,11.86,8.38,17.49,9.02,9.92,1.13,19.99,1.35,30,1,1.1,5.66-4.54,6.21-8.78,6.72-23,2.74-44.85-10.04-65.25-17.19-2.75-.96-5.28-3.77-7.69-4.32-3.51-.8-6.82,1.1-8.6.66-3.59-.89-6.12-13.15-13.68-9.86-2.24-5.23-4.6-11.48-8-16Z"/>
          <path class="cls-4" d="M471.74,263.99c.1.48,1.35,1.58,1.58,2.88,4.17,24.4.24,47.97-7.57,71.12,3.33-1,3.57-3.94,7.72-4.76,3.92-.77,9.14-.49,13.27-1.23l-3.04,8.44.51,1.56,4.54,2c-.19.5.2,1.51,0,2-3.88,9.63-11.76,20.66-18,29-13.15-6.66-26.26,6.54-38.53,7.98-2.26.27-1.4-.86-1.49-2.48,3.66-1.4,1.91-2.34,2.03-2.5,3.18-4.39,7.68-8.17,10.97-12.53,21.55-28.47,26.55-51.26,26.03-86.47,1.56-.41,1.5-3.68,0-4-.02-1-.03-2,0-3,0-.13.83-.62.86-1.45.06-1.89-1.45-4.33-.86-6.55h2Z"/>
          <path class="cls-19" d="M393.74,403.99c.23-.01,1.69,1.23,4.46,1.03,2.41-.18,12.86-3.63,13.54-3.02-.26,3.32-3.38,4.96-5.99,5.99-8.74,3.45-19.09,8.41-28,11-3.15.92-8.57,1.54-12,2l.77-4.4-.77-.6c1.42-.28,4.33-2.96,7-2.01l-1-2.99c5.86-1.34,16.75-6.73,22-7Z"/>
          <path class="cls-16" d="M501.74,298.99c-1.35,18-3.54,30.29-10,47h-3c.2-.49-.19-1.5,0-2,5.49-14.18,10.23-30.41,12.03-45.49l.97.49Z"/>
          <path class="cls-6" d="M306.74,388.99c2.52,8.88-2.25,9.31-8,15-2.47-.97-5.51.45-3.24-4.73.83-1.89,8.37-10.81,11.24-10.27Z"/>
          <path class="cls-16" d="M471.74,263.99h-2c-.6,2.22.92,4.65.86,6.55-.03.83-.86,1.33-.86,1.45l-6.71-24.8c-.83-1.86-.43-3.38-.29-5.2,5.06,4.16,7.14,10.66,8.76,16.77.48,1.82-.06,3.81.24,5.23Z"/>
          <path class="cls-16" d="M469.74,278.99c-.02-1.33.03-2.67,0-4,1.5.32,1.56,3.59,0,4Z"/>
          <path class="cls-19" d="M368.74,410.99l-3,1c.16-.02,1.54-.71,3-1Z"/>
          <path class="cls-10" d="M365.74,415.99l.77.6-.77,4.4c-4.75.64-8.22.83-13,1-10.01.35-20.08.13-30-1l-1-5c10.52,1.79,33.61,2.07,44,0Z"/>
          <path class="cls-4" d="M405.74,407.99c-1.57,5.13-9.33,8.5-14.01,10.49-4.96,2.1-10.19,5.32-13.99.51,8.91-2.59,19.26-7.55,28-11Z"/>
          <path class="cls-19" d="M321.74,415.99l1,5c-5.63-.64-21.2-.78-17.49-9.02,5.11-.22,11.91,3.24,16.49,4.02Z"/>
        </g>
        <g>
          <path class="cls-14" d="M367.74,132.99c17.32,2.51,33.76,7.44,49.68,14.82,4.09,1.9,8.57,5.23,12.84,7.17,5.45-9.99,4.6-20.88,15.32-7.32,8.44,10.69,12.85,25.34,16.17,38.33l-4.91.93c-1.25-3.72-6.65-13.41-10.65-13.97-3.49-.49-11.97,6.55-18.08,6.97-1.59.11-10.14-1.4-11.36-1.93-.74-.32-3.75-3.47-5.98-4.52-14.22-6.66-27.33-11.94-43.02-14.48l9.32-6.18c7.75-4.34,17.15-2.52,25.68-3.82,2.55-2.12-10.09-5.64-11-5.99-9.44-3.7-13.74-4.97-24-6v-4Z"/>
          <path class="cls-18" d="M367.74,158.99c15.69,2.55,28.8,7.82,43.02,14.48,2.23,1.04,5.24,4.19,5.98,4.52-1.03,3.69-4.54,3.16-6,4-62.6-34.95-138.63-14.95-174.81,46.69-3.24,5.53-1.62,9.37-9.78,10.23-6.04.64-14.94-4.46-19.35-8.48-4.91-4.49-4-7.2-2.06-12.44,1.24,2.7,4.39,2.87,6.07,4.43,2.38,2.21,2.66,4.75,6.23,6.77,5.67,3.22,11.11,3.05,15.13-2.27,4.86-6.43,9.2-16.3,14.57-22.93,4.04-5,11.99-12.84,17-17,28.61-23.73,67.25-33.96,104-28Z"/>
          <path class="cls-5" d="M416.74,177.99c1.22.53,9.76,2.04,11.36,1.93,6.12-.42,14.59-7.46,18.08-6.97,4,.56,9.41,10.25,10.65,13.97l4.91-.93c1.97,7.7,5.1,18.1,5,26l-65-22c.4-3.2,6.15-6.37,9-8,1.46-.84,4.97-.31,6-4Z"/>
          <path class="cls-5" d="M228.74,182.99c-1.56,2.18-.55,5.01-1.22,7.28-.9,3.03-7.59,6.36-3.5,11.45,2.15,2.67,18.79,3.82,22.72,2.27-5.36,6.63-9.7,16.5-14.57,22.93-4.02,5.32-9.46,5.49-15.13,2.27-3.57-2.03-3.85-4.56-6.23-6.77-1.68-1.56-4.84-1.73-6.07-4.43,4.91-13.28,14.64-24.62,24-35Z"/>
          <path class="cls-14" d="M253.74,160.99l2,4c-2.56,1.97-16.95,12.86-13.99,15.99,2,.16,4.44-.84,5.99-1.99,3.93,4.29,11.2,4.45,16,8-5.01,4.16-12.96,12-17,17-3.93,1.55-20.58.4-22.72-2.27-4.09-5.08,2.61-8.41,3.5-11.45.67-2.27-.34-5.11,1.22-7.28,9.28-10.28,13.87-14,25-22Z"/>
          <path class="cls-18" d="M466.74,211.99c-.03,2.03-.02,5.32-2.63,5.81-1.06.2-16.25-4.93-18.89-5.79-14-4.59-28.03-9.65-41.77-14.96-1.74-1.42-1.98-4.9-1.71-7.06l65,22Z"/>
          <path class="cls-7" d="M312.74,134.99l-2,4c-17.52,3.79-38.56,14.45-53,25-.56.41-1.45.58-2,1l-2-4c19.98-14.37,34.47-20.96,59-26Z"/>
          <path class="cls-8" d="M367.74,132.99v4c-16.34-1.64-41.08-1.45-57,2l2-4c20.56-4.23,34.05-5.03,55-2Z"/>
          <path class="cls-7" d="M391.74,142.99c.91.36,13.55,3.88,11,5.99-8.53,1.3-17.93-.52-25.68,3.82l-9.32,6.18c-36.75-5.96-75.39,4.27-104,28-4.8-3.55-12.07-3.71-16-8,3.38-2.51,6.2-8.99,11-12,13.19-8.26,52.68-24.72,67.62-25.88,18.2-1.41,36.93,3.07,54.84,3.92,2.95.14,9.04,1.05,10.54-2.04Z"/>
          <path class="cls-2" d="M367.74,136.99c10.26,1.03,14.56,2.3,24,6-1.51,3.09-7.6,2.18-10.54,2.04-17.9-.84-36.64-5.33-54.84-3.92-14.94,1.16-54.43,17.61-67.62,25.88l-1-3c14.44-10.55,35.48-21.21,53-25,15.92-3.45,40.66-3.64,57-2Z"/>
          <path class="cls-8" d="M258.74,166.99c-4.8,3.01-7.62,9.49-11,12-1.55,1.15-3.99,2.15-5.99,1.99-2.95-3.13,11.43-14.03,13.99-15.99.55-.42,1.44-.59,2-1l1,3Z"/>
        </g>
      </g>
      <g>
        <path class="cls-21" d="M100.74,106.99l2.01-1.5c.28,5.87,2,21.78,7.07,24.93,3.07,1.9,8.14,3.1,11.55,1.68,4.37-1.83,4.04-5.44,5.38-9.1,1.16,7.49,2.89,29.84,5.58,34.91,3.05,5.75,8.92,8.76,14.34,3.52,1.33-1.28,1.83-3.95,3.08-4.43,3.7-1.42,7.16-2.81,11.01-4.49,6.4-2.78,8.98-.57,12.41-8.59.71-1.66.17-3.82,1.58-4.92,2.73,15.89,4.75,30.99,3,47-3.37,1.34-3.32,5.67-6.05,7.45-1.14.74-14.91,6.35-16.98,7.02-8.43,2.73-17.11,1.42-25.23,2.77-7.21,1.2-14.62,7.38-24.29,7.8-1.71.07-13.49-1.13-14.43-1.55-3.07-1.39-9.23-10.27-11.97-13.03s-7.02-6.06-7.04.54c-7.37-15.22-10.68-28.51-10-46,0-.13.95-1.13,1.04-2.42.27-3.81-.27-7.76-.03-11.58,2.75.53,5.38,1.68,8.29.8,2.52-.77,8.02-8.22,9.24-8.77.42-.19,2.48-.41,2.47.47.06,2.68-.1,5.37,0,8.04.07,1.92-1.02,4.01,2,3.45.63,8.32-1.94,22.52,7.26,26.24,8.73,3.53,13.11-3.79,12.79-11.77-.63-15.78-3.07-32.55-4.05-48.47Z"/>
        <path class="cls-30" d="M61.74,150.99c-.68,17.49,2.63,30.78,10,46,.92,1.89.75,3.99,2.59,6.91,5.23,8.28,19.87,21.07,29.41,23.09,7.53,5.94,12.61,12.51,17,21l5,46c-1.82,24.06,13.83,76.17,22,100,8.83,25.76,17.72,47.23,34,69,11.68,15.63,26.19,31.2,44.64,38.86,17.5,7.26,39.39,8.59,46.36-12.86,2.14,29.34-17.5,41.68-44.53,33.03-66.46-21.26-96.31-134.93-105.3-195.7-2.99-20.19-3.06-54.29-9.41-71.59-7.14-19.48-24.27-18.89-36.73-33.27-26.92-31.08-21.38-97.36-15.03-135.47v65Z"/>
        <path class="cls-28" d="M144.74,254.99c2,7.25,1.79,14.46,3.12,21.38,9.34,48.53,26.41,97.25,56.88,136.62l-15.29,1.21c-6.15,5.5-11.77,5.14-19.71,5.79-4.82-8.8-9.23-17.67-13-27-13.35-33.08-20.36-68.34-27.23-103.27l-2.76-1.73c1.03,2.14-.93,5-1.01,6l-5-46c5.09-.56,12.27-3.89,17.27-2.82s5.58,5.66,6.73,9.82Z"/>
        <path class="cls-20" d="M204.74,412.99c7.66,9.9,17.25,20.56,26.47,29.03,12.99,11.93,33.06,23.43,39.53,39.97-2.83,4.02-11.77,5.42-16.62,5.88-21.69,2.04-41-12.02-55.38-26.88-11.36-11.74-21.18-26.7-29-41,7.94-.65,13.56-.29,19.71-5.79l15.29-1.21Z"/>
        <path class="cls-9" d="M174.74,138.99c-1.41,1.11-.87,3.26-1.58,4.92-3.43,8.02-6.01,5.81-12.41,8.59-3.85,1.68-7.31,3.07-11.01,4.49.12-.62-.17-1.52,0-2,2.23-6.28-.61-18.93-4-25-2.38-15.36-10.88-47.1-10.07-60.54.25-4.12,2.03-8.71,6.64-9.42,10.2-1.56,12.77,8.94,15.48,16.41,7.03,19.36,13.47,42.26,16.95,62.55Z"/>
        <path class="cls-28" d="M175.74,196.99c-3.17,2.82-4.33,7.03-7.02,10.48-3.93,5.04-15.26,14.93-20.98,17.52-14.43,6.56-28.89,5.2-44,2-9.54-2.02-24.18-14.81-29.41-23.09-1.84-2.92-1.68-5.02-2.59-6.91.03-6.61,4.26-3.33,7.04-.54s8.9,11.64,11.97,13.03c.94.42,12.72,1.63,14.43,1.55,9.67-.41,17.08-6.6,24.29-7.8,8.13-1.35,16.81-.04,25.23-2.77,2.07-.67,15.84-6.28,16.98-7.02,2.73-1.78,2.68-6.11,6.05-7.45-.54,4.93-.85,6.36-2,11Z"/>
        <path class="cls-13" d="M198.74,460.99c14.38,14.86,33.69,28.92,55.38,26.88,4.86-.46,13.79-1.86,16.62-5.88,1.26,3.22,1.66,2.4,2,7-6.97,21.45-28.86,20.12-46.36,12.86-18.45-7.66-32.96-23.23-44.64-38.86,4.54-3.71,11.24-.44,17-2Z"/>
        <path class="cls-9" d="M126.74,122.99c-1.35,3.67-1.02,7.27-5.38,9.1-3.4,1.43-8.48.23-11.55-1.68-5.07-3.15-6.78-19.06-7.07-24.93l-2.01,1.5c-.62-10.05-1.75-20.45-2.04-30.46-.2-6.95-1.33-15.52,6.47-18.61,5.94-2.36,11.06,1.19,13.36,6.78,2.29,19.5,5.19,38.91,8.21,58.29Z"/>
        <path class="cls-9" d="M84.74,140.99c-3.02.56-1.93-1.53-2-3.45-.09-2.67.06-5.37,0-8.04,0-.88-2.05-.66-2.47-.47-1.22.55-6.72,8-9.24,8.77-2.91.89-5.54-.27-8.29-.8-.24,3.81.3,7.77.03,11.58-.09,1.29-1.04,2.29-1.04,2.42v-65c1.04-6.24-.23-15.39,6.04-19.46,4.73-3.07,11.79-1.22,13.51,4.41,1.92,6.27.05,21.93.41,29.59.62,13.41,2.02,27.06,3.04,40.46Z"/>
        <path class="cls-24" d="M147.74,224.99c-2.03,5.63-4.22,11.44-4.07,17.55.03,1.28,1.06,2.28,1.07,2.45.17,3.31-.12,6.68,0,10-1.15-4.15-1.59-8.71-6.73-9.82s-12.18,2.25-17.27,2.82c-4.39-8.49-9.47-15.06-17-21,15.11,3.2,29.57,4.56,44-2Z"/>
        <path class="cls-30" d="M144.74,244.99c0-.17-1.04-1.16-1.07-2.45-.15-6.11,2.04-11.92,4.07-17.55,5.72-2.6,17.04-12.49,20.98-17.52,2.69-3.45,3.86-7.65,7.02-10.48-1.88,7.59-3.44,13.08-7.58,19.92-7.16,11.83-19,14.87-23.42,28.08Z"/>
        <path class="cls-3" d="M149.74,154.99c-2.24-8.15-2.71-16.68-4-25,3.39,6.07,6.23,18.72,4,25Z"/>
        <path class="cls-3" d="M156.74,392.99c3.77,9.33,8.18,18.2,13,27,7.82,14.3,17.64,29.26,29,41-5.76,1.56-12.46-1.71-17,2-16.28-21.77-25.17-43.24-34-69,2.56-2.47,5.94-2.18,9-1Z"/>
        <path class="cls-24" d="M156.74,392.99c-3.06-1.18-6.44-1.47-9,1-8.17-23.83-23.82-75.94-22-100,.08-1,2.04-3.86,1.01-6l2.76,1.73c6.87,34.93,13.88,70.19,27.23,103.27Z"/>
      </g>
    </g>
    <g>
      <path class="cls-11" d="M509.74,110.99c18.2-39.98,63.92-70.98,102-34,3.25,2.49,2.45,5.92,3.78,8.72,1.19,2.51,4.16,5.85,5.22,8.28,3.71,8.44,4.52,13.1,6,22-2.86,1.48-5.14.32-8.07,2.43-5.69,4.11-11.51,20.09-17.6,24.4-22.98,16.28-41.04,7.1-65.84,6.18-8.49-.31-17.07-.03-25.52.58-4.73-3.29-.2-31.84.03-38.59ZM573.74,81.99c4.12,2.31,6.63,2.5,11.01.51,1.63-.74,9.41-7.3,8.52-8.52-2.33-3.57-21.41-9.56-22.58-5.38l.06,10.39c-11.44-6.55-24.46,1.68-31.23,11.27-16.87,23.89,4.48,37.21,24.71,20.71,8.49-6.93,12.47-18.28,9.52-28.98Z"/>
      <path class="cls-8" d="M626.74,115.99c8.5,51.26-43.93,104.35-91.52,72.02-3.89-2.64-13.71-13.71-16.03-14.06-6-.9-5.99,8.47-12.44,9.03-.23-.64-1.53-1.73-2.05-3.42-2.88-9.26-4.65-18.83-3.96-28.58l-1.99,7.99c-.66-16.89,4.12-32.89,11-48-.23,6.74-4.76,35.29-.03,38.59,8.45-.61,17.03-.89,25.52-.58,24.8.92,42.86,10.1,65.84-6.18,6.09-4.32,11.9-20.29,17.6-24.4,2.93-2.11,5.21-.95,8.07-2.43Z"/>
      <path class="cls-7" d="M640.74,135.99c-2.13,4.26-.61,9.83-1.01,14.49-2.82,32.48-20.34,69.75-53.99,79.51-15.07,4.37-29.73,3.66-44-3-17.94-8.37-28.64-26.3-35-44,6.45-.56,6.45-9.93,12.44-9.03,2.33.35,12.14,11.42,16.03,14.06,47.6,32.33,100.03-20.76,91.52-72.02-1.48-8.9-2.29-13.56-6-22l2-4c9.57,13.91,15.89,29.08,18,46Z"/>
      <path class="cls-5" d="M507.74,387.99c3.77-.62,3.05,5.71,4.65,6.07,5.37-.44,10.6-1.84,15.8-3.13,4.32-1.08,6.24-3.86,11.56-1.94-5.02,12.61-9.82,25.4-17,37-14.46,23.38-47.82,62.07-77.5,62.06-5.52,0-17.36-1.45-19.5-7.06,5.88-15.43,20.44-23.1,32.01-33.49,19.35-17.37,36.62-37.07,49.99-59.51Z"/>
      <path class="cls-14" d="M573.74,259.99c-.28,3.26.29,6.74,0,10l-5-2c-4.54,29.09-9.21,59.62-17,88-3.21,11.69-7.59,21.92-12,33-5.32-1.92-7.24.87-11.56,1.94-5.2,1.3-10.42,2.69-15.8,3.13-1.6-.36-.88-6.69-4.65-6.07,18.31-30.75,37.87-83.27,39-119,3.28.57,1.62-1.68,1.96-3.49,1.07-5.74,2.41-9.38,2.04-15.51,4.19-.33,8.93,1,12.69,2.81,4.49,2.16,5.99,5.57,10.31,7.19Z"/>
      <path class="cls-15" d="M571.74,331.99c-9.12,60.18-28.1,132.24-75.99,173.51-25.42,21.91-75.35,33.46-72.01-15.51,14.41,31.6,53.61,11.15,72.01-5.49s29.67-36.78,39.99-58.51c10.94-23.05,17.85-43.13,24-68,2.12-8.57,4.42-17.31,6-26h6Z"/>
      <path class="cls-18" d="M535.74,425.99c-10.32,21.73-21.7,41.99-39.99,58.51s-57.6,37.09-72.01,5.49c.29-4.19.54-5.17,2-9,2.14,5.61,13.98,7.06,19.5,7.06,29.68,0,63.04-38.69,77.5-62.06,4.6,1.2,8.4,1.2,13,0Z"/>
      <path class="cls-25" d="M571.74,331.99h-6c3.71-20.34,6.14-41.4,8-62,.29-3.26-.28-6.74,0-10,.32-3.64.49-7.22,1.81-10.69l10.19-19.31c33.65-9.76,51.16-47.03,53.99-79.51.41-4.66-1.12-10.23,1.01-14.49,4.89,39.29-4.57,77.13-38.08,100.42-3.16,2.2-7.77,3.79-10.86,6.14-15.85,12.1-12.96,38-15.08,55.92-1.33,11.26-3.3,22.34-4.99,33.51Z"/>
      <path class="cls-25" d="M506.74,182.99c6.36,17.7,17.06,35.63,35,44,3.36,8.16,8.43,13.7,9,23,.37,6.13-.97,9.77-2.04,15.51-.34,1.81,1.32,4.06-1.96,3.49,1.03-32.64-19.82-30.88-33.8-53.7-7.8-12.73-13.29-30.39-14.2-45.3,1.65-1.26,1.65-5.74,0-7,.03-1.33-.02-2.67,0-4l1.99-7.99c-.69,9.75,1.07,19.32,3.96,28.58.53,1.69,1.82,2.78,2.05,3.42Z"/>
      <path class="cls-8" d="M611.74,76.99c4.21,4.09,7.73,8.25,11,13l-2,4c-1.06-2.42-4.04-5.77-5.22-8.28-1.33-2.81-.53-6.23-3.78-8.72Z"/>
      <path class="cls-17" d="M570.74,78.99c.4.23,1.28,2.04,3,3,2.95,10.7-1.03,22.05-9.52,28.98-20.22,16.5-41.58,3.19-24.71-20.71,6.77-9.59,19.79-17.82,31.23-11.27Z"/>
      <path class="cls-2" d="M573.74,81.99c-1.72-.96-2.6-2.77-3-3l-.06-10.39c1.17-4.19,20.25,1.81,22.58,5.38.89,1.21-6.88,7.77-8.52,8.52-4.37,1.99-6.89,1.81-11.01-.51Z"/>
      <path class="cls-5" d="M585.74,229.99l-10.19,19.31c-1.32,3.47-1.49,7.05-1.81,10.69-4.32-1.62-5.82-5.03-10.31-7.19-3.76-1.81-8.5-3.14-12.69-2.81-.57-9.3-5.64-14.84-9-23,14.27,6.66,28.93,7.37,44,3Z"/>
      <path class="cls-1" d="M559.74,357.99c-6.15,24.87-13.06,44.95-24,68-4.6,1.2-8.4,1.2-13,0,7.18-11.6,11.98-24.39,17-37,4.41-11.08,8.79-21.31,12-33l8,2Z"/>
      <path class="cls-5" d="M551.74,355.99c7.79-28.37,12.46-58.91,17-88l5,2c-1.86,20.6-4.29,41.66-8,62-1.58,8.69-3.88,17.43-6,26l-8-2Z"/>
    </g>
  </g>
  <path class="cls-22" d="M251.74,661.99c3.12-.31,8.21.85,12,1,2.52,10.75-4.55,18.56-15.43,16.94-2.98-.44-6.64-3.88-7.57-3.94l2-11c3.41.25,5.8-2.68,9-3Z"/>
  <path class="cls-13" d="M286.74,665.99c-6.58,3.67-13.48,5.71-20.86,2.86l-.14-5.87c-.66-.04-1.33.03-2,0-3.79-.15-8.88-1.31-12-1-.36-2.82-.26-2.51,1.96-3.5,8.27-3.7,26.22,1.02,31.41-3.4,1.33-1.14-.29-3.34,1.61-3.1.33,4.54-.42,9.53.01,13.99Z"/>
  <path class="cls-22" d="M177.74,633.99c4.8,1,9.38,8.38,10,13-.16.01-1.12.97-2.42,1.04-8.8.47-17.77-.43-26.58-.04.43-1.57.45-4.82,1-6,.93-2,5.71-6.09,8-7,.64-.25,1.89-.98,2-1,1.48-.24,6.62-.29,8,0Z"/>
  <path class="cls-3" d="M169.74,633.99c-.11.02-1.36.75-2,1v-1.99s1.49,0,1.49,0l.51.99Z"/>
  <g>
    <path class="cls-5" d="M259.74,23.99l18.99,6.99c-15.37,3.39-24.79,8.65-25,26.01-2.56.4-1.56-.22-2.09-1.41-5.18-11.53-5.03-18.61-19.9-22.59,3.32.04,5.62-1.68,7.55-1.96,8.62-1.24,13.34.84,20.45-7.04Z"/>
    <path class="cls-14" d="M230.74,28.99c14.36-4.95,16.92-8.7,20.01-24,2.65-.26,1.62-.05,1.96,1.49,1.51,6.69,3.16,11.72,7.02,17.5-7.11,7.88-11.83,5.8-20.45,7.04-1.93.28-4.23,2-7.55,1.96-.66,0-1.35.07-2,0l1-4Z"/>
    <path class="cls-8" d="M287.73,48.98c-.22,3.37,1.27,6.55,3.47,9.04l9.54,3.46c-7.29,1.56-13.06,5.38-13.02,13.51l-5.93-9.56-8.07-3.93c9.29-2.94,8.48-3.46,11.91-11.11.53-1.19-.47-1.8,2.09-1.41Z"/>
    <path class="cls-5" d="M229.74,32.99c-1.35-.14-2.63-.88-4-1.01v-1.98c1.87.29,3.32-.43,5-1.01l-1,4Z"/>
    <g>
      <path class="cls-30" d="M193.74,69.99l10,14c-.03.56-.14,1.26.25,1.72,4.11,4.93,9.76,9.06,14.75,13.28,7.82,6.61,21.79,17,32.5,17h19.5c.04-1.36.34-1.94-.66-3.05-1.31-1.44-11-6.46-13.65-8.14-1.94-1.23-5.92-5.2-7.42-5.64-3.62-1.05-6.53,1.92-9.84,1.89-1.38-.01-2.3-1.06-2.43-1.06.9-.59,11.32-1.6,9-3.99-1.79-.38-10.35-5.49-10.89-6.18-.17-.22.92-.78.89-.83,1.23,1.29,4.21.61,5,1,1.73.85,5.09,3.47,8,5,10.25,5.38,26.02,12.63,35,19,1.44,1.02,4.58,4.5,6,5.99-13.29,2.12-24.43,5.34-38.38,3.89-28.36-2.96-53.49-29.64-61.62-55.88,1.64-.13,2.93,1.66,4,2Z"/>
      <path class="cls-29" d="M256.74,77.99c.35,3.6-5.78,7.87-9,8-.24-.49-2.97-8.66-3.99-7-.16.58.18,1.76,0,2-.53.67-9.57,2.65-10,6-1.63-1.04-4.92-1.42-6-2-12.5-6.67-20.15-10.6-34-15-1.07-.34-2.36-2.13-4-2-.39-1.26-1.41-2.36-1-3.99,22.56-2.27,43.37-1.4,63.29,10.19,2.1,1.22,3.26,2.8,4.7,3.8ZM233.74,69.99c-4.41-2.46-11.56-5.95-10.41,2.08l9.41,1.92c-.1.79-.04,1.55.75,1.95l7.25,2.04c-.39-4.55-3.65-6.13-7-7.99Z"/>
      <path class="cls-3" d="M251.74,87.99c.75.23,1.71-.08,2.94.51,2.65,1.29,4.91,6.7,9.54,6.5l3.51-7.02c6.65,7.56,13.82,15.58,16,26-8.98-6.37-24.75-13.62-35-19,.54-2.49.51-4.48,2.96-5.69l.04-1.31Z"/>
      <path class="cls-28" d="M267.74,87.99l-3.51,7.02c-4.64.2-6.89-5.22-9.54-6.5-1.23-.6-2.2-.28-2.94-.51-1.76-.55-2.68.71-4-2,3.22-.13,9.35-4.4,9-8,6.56,4.56,5.92,4.23,11,10Z"/>
      <path class="cls-12" d="M236.74,99.99c.13,0,1.05,1.05,2.43,1.06,3.31.03,6.22-2.94,9.84-1.89,1.5.44,5.48,4.4,7.42,5.64,2.65,1.68,12.34,6.7,13.65,8.14,1,1.11.7,1.69.66,3.05h-19.5c-10.71,0-24.68-10.39-32.5-17,6.02.68,11.93.93,18,1Z"/>
      <path class="cls-3" d="M203.74,83.99c7.91.38,15.46,4.02,23.48,4.04,2.88,0,1.33-1.81.52-3.04,1.08.58,4.37.96,6,2,.75.48,1.6,1.18,2,2,.03.06-1.07.61-.89.83.54.69,9.1,5.8,10.89,6.18,2.33,2.39-8.1,3.4-9,3.99-6.07-.07-11.98-.32-18-1-4.99-4.22-10.64-8.34-14.75-13.28-.39-.47-.27-1.16-.25-1.72Z"/>
      <path class="cls-24" d="M227.74,84.99c.81,1.22,2.36,3.04-.52,3.04-8.02-.02-15.58-3.66-23.48-4.04l-10-14c13.85,4.4,21.5,8.33,34,15Z"/>
      <path class="cls-24" d="M247.74,85.99c1.32,2.71,2.24,1.45,4,2l-.04,1.31c-2.45,1.21-2.42,3.2-2.96,5.69-2.91-1.53-6.27-4.15-8-5,1.94-2.85,6.28-5.47,3-9,.19-.24-.15-1.42,0-2,1.02-1.66,3.75,6.51,3.99,7Z"/>
      <path class="cls-28" d="M243.74,80.99c3.28,3.53-1.06,6.15-3,9-.79-.39-3.77.29-5-1-.4-.82-1.25-1.52-2-2,.43-3.35,9.47-5.33,10-6Z"/>
      <path class="cls-17" d="M233.74,69.99c.42,1.46-.88,3.05-1,4l-9.41-1.92c-1.16-8.03,6-4.54,10.41-2.08Z"/>
      <path class="cls-9" d="M233.74,69.99c3.34,1.87,6.6,3.44,7,7.99l-7.25-2.04c-.79-.4-.85-1.17-.75-1.95.12-.95,1.42-2.54,1-4Z"/>
    </g>
    <g>
      <path class="cls-29" d="M445.74,13.99l-.98.5.98.5c.12.61-.1,1.37,0,2-3.08.89-3.13,5.38-6,5-1.22-2.84-2.74-2.9-4,0l-8-1c-.02,1.33,0,2.67,0,4-3.25-3.56,1.52-22.87,3.95-24.56,3.52-2.45,11.33,6.31,12.93,9.2,1.03,1.85.72,2.81,1.12,4.36Z"/>
      <path class="cls-28" d="M445.74,16.99c.41,2.63,1.82,5.62,1.01,8.99,2.9.21,3.3-3.92,5.51-5.98,5.45-5.09,9.96-4.17,13.48,1.99-2.69.4-6.91,4.46-7,7-7.41,1.45-10.89,12.67-19,9,2.08-5.23,2.35-10.54,0-16,2.87.38,2.92-4.11,6-5Z"/>
      <path class="cls-3" d="M460.74,36.99c7.02-.49,17.63,2.17,21,9-2.8,3.33-14.48,5-19,5-.07-6.2-7.06-6.17-5-13,.85-.16,1.81-.92,3-1Z"/>
      <path class="cls-30" d="M443.74,52.99c-.63-.15-1.33-.77-2-1,.03-.31.08-.82,0-1,5.24-5.09,14.68,0,21,0,4.52,0,16.2-1.67,19-5,2.45,4.97-.46,6.91-5.01,8.49-10.23,3.57-22.79.97-32.99-1.49Z"/>
      <path class="cls-13" d="M435.74,21.99c1.26-2.9,2.78-2.84,4,0,2.35,5.46,2.08,10.77,0,16-.65,1.64-2.47,3.5-3,6-2.32-.7-3.65-3.96-5-5-.6-3.52-3.44-7.67-4-11l5.87.88c1.03-.63,1.65-5.78,2.13-6.88Z"/>
      <path class="cls-13" d="M465.74,21.99c.22.39,1.59.38,1.98,2.48,1.29,6.82-2.47,8.67-6.98,12.52-1.19.08-2.15.84-3,1-3.04.56-4.15.84-7,2,.78-4.18,6.72-4.33,8.56-8.07,1-2.05-.56-2.7-.56-2.93.09-2.54,4.31-6.6,7-7Z"/>
      <path class="cls-28" d="M435.74,21.99c-.48,1.1-1.1,6.24-2.13,6.88l-5.87-.88c-.14-.86,0-2.04,0-3,0-1.33-.02-2.67,0-4l8,1Z"/>
      <path class="cls-28" d="M445.74,14.99l-.98-.5.98-.5c.08.3-.06.67,0,1Z"/>
      <path class="cls-3" d="M458.74,28.99c0,.23,1.56.88.56,2.93-1.83,3.74-7.78,3.89-8.56,8.07-4.33,1.75-7.48,4.06-12,6-.47.2-1.52-.2-2,0,.08-.64-.13-1.41,0-2,.53-2.5,2.35-4.36,3-6,8.11,3.67,11.59-7.55,19-9Z"/>
      <g>
        <path class="cls-18" d="M443.74,52.99c8.87,24.75-8.02,33.89-27,43-.37-1.85-9.75-4.92-10.33-4.84-.69.1-9.38,5.9-11.99,7.02-10.78,4.6-21.48,6.48-33.06,4.69-1.91-.29-2.95-2.18-2.62,1.13-1.9-4.11-1.57-3.83-1-8,6.49,1.9,12.59.48,19-1,.94,1.36,2.48,3.29,3.99,4,.14-1.75-.54-3.37-.99-5,3.07-.27,6.87-.65,9.72-1.78,11.93-4.75,28.83-13.1,39.86-19.13,5.4-2.96,7.15-3.37,9.42-9.08,1.37-3.44,2.7-8.42,3-12,.67.23,1.37.85,2,1Z"/>
        <path class="cls-5" d="M438.74,63.99c-2.27,5.72-4.02,6.13-9.42,9.08-11.03,6.04-27.93,14.38-39.86,19.13-2.84,1.13-6.64,1.51-9.72,1.78-1.92-7.02-5.71-12.12-13-13.99l10,14.99c-6.41,1.48-12.51,2.9-19,1,1.54-11.24,9.96-20.44,17-29,2.75,1.05,3.97,3.31,6,5,1.01.84,5.09,4.46,5.7,4.77,3.8,1.91,19.36-2.03,24.1-3.47,2.23-.68,3.85-2.44,5.91-3.09,7.35-2.36,14.64-4.97,22.3-6.2Z"/>
        <path class="cls-7" d="M431.74,38.99c1.35,1.04,2.68,4.3,5,5-.13.59.08,1.36,0,2-4.13,1.76-6.93,6.66-10.65,8.85-11.91,7.05-23.53,9.95-36.39,13.61-3.1.88-5.62,3.26-8.97,3.53-2.03-1.69-3.25-3.95-6-5,6.99-8.51,23.52-29.36,33.28-32.22,7.99-2.34,17.17-.83,23.72,4.22ZM397.74,53.99c-1.49.09-4.5-1-3.99,1.49l7.99,6.51c.73-3.93-3.76-4.47-3.99-8,8.51-.53,6.38-2.36,12.79-5.71,2.62-1.37,14.91-3.83,13.21-6.27-5.67-3.04-7.67-4.08-13.99-1.51-4.11,1.67-12.3,9.01-12.01,13.49Z"/>
        <path class="cls-25" d="M416.74,95.99c-2.89,1.39-7.61,3.1-10.97,4.54-12,5.14-39.26,20.27-47.03,3.46-.34-3.31.71-1.42,2.62-1.13,11.58,1.78,22.28-.09,33.06-4.69,2.61-1.12,11.31-6.92,11.99-7.02.57-.08,9.96,2.99,10.33,4.84ZM408.24,93.99v1c.65-.33.65-.67,0-1Z"/>
        <path class="cls-14" d="M436.74,45.99c.48-.2,1.53.2,2,0-.21,2.03,2.78,4.45,3,5,.08.18.03.69,0,1-.3,3.58-1.63,8.56-3,12-7.66,1.23-14.95,3.85-22.3,6.2-2.05.66-3.67,2.41-5.91,3.09-4.73,1.44-20.3,5.38-24.1,3.47-.61-.31-4.69-3.92-5.7-4.77,3.35-.27,5.86-2.65,8.97-3.53,12.86-3.66,24.48-6.57,36.39-13.61,3.72-2.2,6.52-7.09,10.65-8.85Z"/>
        <path class="cls-15" d="M379.74,93.99c.45,1.63,1.13,3.25.99,5-1.51-.71-3.05-2.64-3.99-4l-10-14.99c7.28,1.88,11.08,6.97,13,13.99Z"/>
        <path class="cls-2" d="M397.74,53.99c-.29-4.48,7.89-11.82,12.01-13.49,6.32-2.57,8.32-1.53,13.99,1.51,1.7,2.44-10.58,4.9-13.21,6.27-6.41,3.35-4.28,5.18-12.79,5.71Z"/>
        <path class="cls-18" d="M397.74,53.99c.23,3.53,4.72,4.06,3.99,8l-7.99-6.51c-.51-2.48,2.5-1.39,3.99-1.49Z"/>
        <path class="cls-18" d="M408.24,93.99c.65.33.65.67,0,1v-1Z"/>
      </g>
      <path class="cls-12" d="M457.74,37.99c-2.06,6.83,4.93,6.8,5,13-6.32,0-15.76-5.09-21,0-.22-.55-3.21-2.97-3-5,4.52-1.94,7.67-4.25,12-6,2.85-1.16,3.96-1.44,7-2Z"/>
    </g>
  </g>
</svg>